<?xml version="1.0" encoding="UTF-8"?>
<svg width="200" height="40" viewBox="0 0 200 40" fill="none" xmlns="http://www.w3.org/2000/svg">
  <rect width="40" height="40" rx="8" fill="#1976d2"/>
  <path d="M20 8C13.373 8 8 13.373 8 20C8 26.627 13.373 32 20 32C26.627 32 32 26.627 32 20C32 13.373 26.627 8 20 8ZM20 30C14.486 30 10 25.514 10 20C10 14.486 14.486 10 20 10C25.514 10 30 14.486 30 20C30 25.514 25.514 30 20 30Z" fill="white"/>
  <path d="M21 14H19V21H26V19H21V14Z" fill="white"/>
  <!-- EVENT -->
  <path d="M50 25V10H59V12.2H52.5V16H58.5V18.2H52.5V22.8H59V25H50Z" fill="#2196F3"/>
  <path d="M61 25V10H63.5V16H69.5V10H72V25H69.5V18.2H63.5V25H61Z" fill="#2196F3"/>
  <path d="M74 25V10H83V12.2H76.5V16H82.5V18.2H76.5V22.8H83V25H74Z" fill="#2196F3"/>
  <path d="M85 25V10H87.5V22.8H94V25H85Z" fill="#2196F3"/>
  <path d="M96 25V10H98.5V22.8H105V25H96Z" fill="#2196F3"/>
  <!-- RESERVE -->
  <path d="M110 25V10H115.5C117.3 10 118.7 10.4 119.7 11.2C120.7 12 121.2 13.1 121.2 14.5C121.2 15.9 120.7 17 119.7 17.8C118.7 18.6 117.3 19 115.5 19H112.5V25H110ZM112.5 16.8H115.3C116.3 16.8 117.1 16.6 117.7 16.2C118.3 15.8 118.6 15.2 118.6 14.5C118.6 13.8 118.3 13.2 117.7 12.8C117.1 12.4 116.3 12.2 115.3 12.2H112.5V16.8Z" fill="#2196F3"/>
  <path d="M123.6 25V10H132.6V12.2H126.1V16H132.1V18.2H126.1V22.8H132.6V25H123.6Z" fill="#2196F3"/>
  <path d="M135 25V10H144V12.2H137.5V16H143.5V18.2H137.5V22.8H144V25H135Z" fill="#2196F3"/>
  <path d="M146.4 25V10H151.9C153.7 10 155.1 10.4 156.1 11.2C157.1 12 157.6 13.1 157.6 14.5C157.6 15.9 157.1 17 156.1 17.8C155.1 18.6 153.7 19 151.9 19H148.9V25H146.4ZM148.9 16.8H151.7C152.7 16.8 153.5 16.6 154.1 16.2C154.7 15.8 155 15.2 155 14.5C155 13.8 154.7 13.2 154.1 12.8C153.5 12.4 152.7 12.2 151.7 12.2H148.9V16.8Z" fill="#2196F3"/>
  <path d="M160 25V10H169V12.2H162.5V16H168.5V18.2H162.5V22.8H169V25H160Z" fill="#2196F3"/>
</svg>