<?xml version="1.0" encoding="UTF-8"?>
<svg width="200" height="40" viewBox="0 0 200 40" fill="none" xmlns="http://www.w3.org/2000/svg">
  <rect width="40" height="40" rx="8" fill="#1976d2"/>
  <path d="M20 8C13.373 8 8 13.373 8 20C8 26.627 13.373 32 20 32C26.627 32 32 26.627 32 20C32 13.373 26.627 8 20 8ZM20 30C14.486 30 10 25.514 10 20C10 14.486 14.486 10 20 10C25.514 10 30 14.486 30 20C30 25.514 25.514 30 20 30Z" fill="white"/>
  <path d="M21 14H19V21H26V19H21V14Z" fill="white"/>
  <!-- EVENT -->
  <path d="M50 25V10H59V12.2H52.5V16H58.5V18.2H52.5V22.8H59V25H50Z" fill="#2196F3"/>
  <path d="M61 25V10H63.5V16H69.5V10H72V25H69.5V18.2H63.5V25H61Z" fill="#2196F3"/>
  <path d="M74 25V10H83V12.2H76.5V16H82.5V18.2H76.5V22.8H83V25H74Z" fill="#2196F3"/>
  <path d="M85 25V10H87.5V22.8H94V25H85Z" fill="#2196F3"/>
  <path d="M96 25V10H98.5V22.8H105V25H96Z" fill="#2196F3"/>
  <!-- RESERVE -->
  <path d="M110 25V10H119V12.2H112.5V16H118.5V18.2H112.5V22.8H119V25H110Z" fill="#2196F3"/>
  <path d="M121 25V10H130V12.2H123.5V16H129.5V18.2H123.5V22.8H130V25H121Z" fill="#2196F3"/>
  <path d="M132 25V10H141V12.2H134.5V16H140.5V18.2H134.5V22.8H141V25H132Z" fill="#2196F3"/>
  <path d="M143 25V10H152V12.2H145.5V16H151.5V18.2H145.5V22.8H152V25H143Z" fill="#2196F3"/>
  <path d="M154 25V10H163V12.2H156.5V16H162.5V18.2H156.5V22.8H163V25H154Z" fill="#2196F3"/>
  <path d="M165 25V10H174V12.2H167.5V16H173.5V18.2H167.5V22.8H174V25H165Z" fill="#2196F3"/>
</svg>